<?xml version="1.0" encoding="utf-8"?>
<!-- Generator: Adobe Illustrator 23.0.1, SVG Export Plug-In . SVG Version: 6.00 Build 0)  -->
<svg version="1.1" id="Layer_1" xmlns="http://www.w3.org/2000/svg" xmlns:xlink="http://www.w3.org/1999/xlink" x="0px" y="0px"
	 viewBox="0 0 80 70" style="enable-background:new 0 0 80 70;" xml:space="preserve">
<style type="text/css">
	.st0{fill:#FFFFFF;}
</style>
<path class="st0" d="M50.2,44.9c-6.9,0-13.7,0-20.6,0c-0.9,0-1.2,0.2-0.8,1.1c0.3,0.6,0.6,1.2,0.8,1.8c0.7,1.6,2.4,2.6,4.2,2.5
	c12.1,0,24.3,0,36.4,0h0.7c1,0,1.8,0.8,1.8,1.8c0,1-0.7,1.8-1.7,1.8c-0.1,0-0.1,0-0.2,0c-2.7,0-5.3,0-8,0c-9.6,0-19.3,0-28.9,0
	c-3.4,0.2-6.5-1.8-7.8-4.9c-1.6-3.2-2.2-6.7-3-10c-2.4-9.6-4.8-19.3-7.2-29c-0.4-1.6-1-3.1-1.8-4.4c-0.7-1.3-2.1-2.1-3.5-2
	c-2.9,0-5.7,0-8.6,0C0.8,3.5,0,2.8,0,1.7s0.8-1.7,2.3-1.7c2.8,0,5.6,0,8.4,0c2.9-0.1,5.6,1.5,6.9,4.1c1.2,2.3,2.1,4.9,2.6,7.5
	c0.2,0.8,0.5,1.1,1.3,1c18.5,0,37,0,55.5,0c0.3,0,0.7,0,1,0c1-0.1,1.9,0.6,2,1.6c0,0.3,0,0.6-0.1,0.9l-6,24.1
	c-0.3,1.3-0.6,2.6-1,3.9s-0.8,1.8-2.3,1.8L50.2,44.9z M36.7,16.1H35c-3,0-2.9,0-2.4,3c0.1,0.6,0.3,0.6,0.8,0.6c2.3,0,4.7,0,7,0
	c0.4,0,0.9,0.1,0.8-0.6c-0.3-1,0.5-2.2-0.6-3c-0.1-0.1-0.4,0-0.6,0L36.7,16.1z M61.3,16.1h-1.9c-2.7,0-2.7,0-2.8,2.8
	c0,0.6,0.2,0.8,0.8,0.8c1.6,0,3.2,0,4.9,0c2.9,0,2.9,0,3.2-2.8c0,0,0-0.1,0-0.1c0.1-0.5-0.1-0.6-0.6-0.6
	C63.7,16.2,62.6,16.2,61.3,16.1L61.3,16.1z M49,16.1h-1.8c-2.8,0-2.8,0-2.5,2.8c0.1,0.6,0.3,0.8,0.9,0.8c1.6,0,3.2,0,4.8,0
	c2.8,0,2.8,0,2.8-2.9v-0.1c0.1-0.5-0.2-0.6-0.6-0.6L49,16.1z M37.4,23.3c-1.2,0-2.4,0-3.5,0c-0.2,0-0.6-0.1-0.6,0.2
	c0.1,1,0.2,2.1,0.4,3.1c0,0.3,0.3,0.2,0.6,0.2H41c0.2,0,0.6,0.1,0.6-0.3c0-1-0.1-2-0.2-3c0-0.4-0.5-0.3-0.8-0.3
	C39.6,23.3,38.5,23.3,37.4,23.3L37.4,23.3z M60.6,23.3h-1.7c-2.6,0-2.6,0-2.7,2.7c0,0.7,0.1,0.9,0.8,0.9c1.5-0.1,2.9,0,4.4,0
	c2.9,0,2.8,0,3.2-2.9c0.1-0.5,0-0.7-0.6-0.7C62.9,23.4,61.7,23.3,60.6,23.3L60.6,23.3z M59.6,34.1h1c2.9,0,2.8,0,3.2-2.9
	c0.1-0.7-0.1-0.7-0.7-0.7c-1.6,0-3.1,0-4.6,0c-2.5,0-2.5,0-2.6,2.6c0,0.8,0.1,1.1,0.9,1S58.6,34.1,59.6,34.1L59.6,34.1z M38.1,30.5
	c-1.1,0-2.2,0-3.3,0c-0.2,0-0.7-0.2-0.6,0.4c0.1,1,0.2,1.9,0.4,2.9c0,0.4,0.3,0.4,0.6,0.4h6.4c0.2,0,0.6,0.1,0.6-0.3
	c0-1-0.1-2-0.2-3c0-0.4-0.5-0.3-0.8-0.3L38.1,30.5z M48.9,23.3h-1.4c-2.7,0-2.7,0-2.4,2.8c0.1,0.6,0.2,0.9,0.9,0.8
	c1.3,0,2.6,0,3.9,0c2.8,0,2.8,0,2.8-2.8c0-0.6-0.1-0.8-0.7-0.8C51,23.4,49.9,23.3,48.9,23.3L48.9,23.3z M38.7,37.7h-1
	c-3,0-3,0-2.4,3c0.1,0.5,0.3,0.6,0.8,0.6c1.4,0,2.7,0,4.1,0c2.4,0,2.4,0,2.3-2.5c0-0.8-0.2-1.2-1.1-1.1
	C40.4,37.7,39.5,37.7,38.7,37.7z M59.1,37.7h-1c-2.8,0-2.8,0-2.8,2.8c0,0.7,0.2,0.8,0.8,0.8c1.2,0,2.4,0,3.6,0c2.9,0,2.8,0,3.2-2.9
	c0.1-0.5,0-0.7-0.6-0.7C61.2,37.7,60.2,37.7,59.1,37.7z M21.4,16.1c0.3,1.1,0.6,2.1,0.8,3.1c0.1,0.5,0.4,0.5,0.7,0.5h5.6
	c0.2,0,0.6,0,0.6-0.2c-0.1-1.1-0.3-2.2-0.4-3.3c0,0-0.3-0.1-0.4-0.1L21.4,16.1z M49,30.5L49,30.5c-0.9,0-1.9,0-2.8,0
	c-0.3,0-0.7-0.1-0.7,0.3c0,1,0.1,1.9,0.1,2.9c0,0.4,0.4,0.4,0.7,0.4h3.1c2.8,0,2.8,0,2.8-2.8v-0.1c0.1-0.5-0.1-0.7-0.6-0.6
	C50.8,30.5,49.9,30.5,49,30.5L49,30.5z M72.4,16.1c-0.9,0.1-2.2-0.4-3.1,0.2c-0.5,0.4-0.3,1.8-0.5,2.6c-0.1,0.7,0.1,0.8,0.7,0.7
	c1,0,2,0,3,0c2.7,0,2.7,0,3.3-2.6c0-0.1,0-0.2,0.1-0.3c0.2-0.5,0-0.6-0.5-0.6C74.4,16.2,73.6,16.2,72.4,16.1L72.4,16.1z M23.2,23.3
	c0.3,1.1,0.5,2,0.7,2.9c0.1,0.6,0.4,0.7,0.9,0.7c1.2,0,2.4,0,3.5,0c1.6,0,1.6,0,1.5-1.6c-0.1-0.5-0.2-1-0.2-1.4s-0.2-0.6-0.6-0.6
	C27.1,23.3,25.2,23.3,23.2,23.3L23.2,23.3z M48.9,37.7c-0.8,0-1.6,0-2.3,0c-0.5,0-0.6,0.1-0.6,0.6c-0.1,3-0.1,3,2.8,3h0.3
	c2.7,0,2.6,0,2.7-2.7c0-0.7-0.1-1-0.8-0.9S49.6,37.7,48.9,37.7L48.9,37.7z M74.2,23.3h-3.1c-2.9,0-2.9,0-3.2,2.9c0,0,0,0.1,0,0.1
	c-0.1,0.5,0.1,0.6,0.6,0.6h4.3c0.3,0,0.5-0.1,0.6-0.5C73.6,25.5,73.9,24.5,74.2,23.3L74.2,23.3z M28.3,34.1h1c1.5,0,1.5,0,1.4-1.5
	c0-0.5-0.2-1-0.2-1.4s-0.2-0.7-0.8-0.7c-1.2,0-2.4,0.1-3.7,0c-1-0.1-1.1,0.3-0.9,1.2C25.9,34.1,25.8,34.1,28.3,34.1z M69.9,30.5h-1
	c-1.5,0-1.5,0-1.7,1.6c-0.2,2-0.2,2,1.8,2c2.6,0,2.6,0,3.2-2.6c0.2-0.9,0-1.1-0.9-1C70.9,30.6,70.4,30.5,69.9,30.5z M29.1,37.7
	c-0.6,0-1.1,0-1.7,0s-0.7,0.1-0.6,0.7c0.5,2.9,0.5,2.9,3.4,2.9h0.1c1.1,0.2,1.4-0.1,1.2-1.4C31.3,37.7,31.4,37.7,29.1,37.7z
	 M68,41.3c0.8-0.1,1.8,0.4,2.1-1.1c0.4-2.5,0.6-2.4-1.9-2.4c-1.7,0-1.7,0-1.9,1.7C66.1,41.3,66.1,41.3,68,41.3z"/>
<path class="st0" d="M28.5,62.8c0.1-3.9,3.3-7.1,7.2-7c3.9,0.1,7.1,3.3,7,7.2c-0.1,3.9-3.2,7-7.1,7C31.6,70,28.4,66.7,28.5,62.8
	C28.5,62.8,28.5,62.8,28.5,62.8z M39.1,62.9c0-2-1.6-3.6-3.5-3.6S32,60.9,32,62.8s1.6,3.6,3.5,3.6C37.5,66.4,39.1,64.8,39.1,62.9z"
	/>
<path class="st0" d="M64,70c-4,0-7.2-3.2-7.2-7.2c0-4,3.2-7.2,7.2-7.2c4,0,7.2,3.2,7.2,7.2c0,0,0,0.1,0,0.1C71.1,66.8,67.9,70,64,70
	z M67.6,62.8c0-2-1.6-3.5-3.6-3.5s-3.5,1.6-3.5,3.6c0,2,1.6,3.5,3.6,3.5C66,66.4,67.6,64.8,67.6,62.8L67.6,62.8z"/>
</svg>
